<svg id="圖層_1" data-name="圖層 1" xmlns="http://www.w3.org/2000/svg" viewBox="0 0 97.62 45.71"><defs><style>.cls-1{fill:#fff;}.cls-2{fill:#2c2945;}.cls-3{fill:#47416e;}.cls-4{fill:#8d8ec6;}.cls-5{fill:#69699c;}.cls-6{fill:#b2113f;}.cls-7{fill:#e81f40;}.cls-8{fill:#a60c3f;}.cls-9{fill:#6d4247;}.cls-10{fill:#bd6548;}.cls-11{fill:#2c2849;}.cls-12{fill:#444476;}.cls-13{fill:#ffcd73;}.cls-14{fill:#b66947;}.cls-15{fill:#f9a957;}.cls-16{fill:#873f3a;}</style></defs><path class="cls-1" d="M26.58,28.82l-6.78.88L19,26.61H15.86l-.69,3.09L8.2,29,13.64,10.8l7.61-.38Zm-8.1-6.39-1-4.76-1,4.76Z" transform="translate(-1.06 -6.18)"/><path class="cls-1" d="M40.88,23a7.44,7.44,0,0,1-.65,3.23,6.19,6.19,0,0,1-1.78,2.25,7.4,7.4,0,0,1-2.64,1.29,12,12,0,0,1-3.24.42A6.69,6.69,0,0,1,31.1,30a13.92,13.92,0,0,1-1.62-.44c-.55-.18-1.08-.37-1.58-.57s-1-.4-1.35-.59l.6-5.36a9.53,9.53,0,0,0,2.58,1.06,10.79,10.79,0,0,0,2.78.37l.63,0a3.1,3.1,0,0,0,.7-.13,1.54,1.54,0,0,0,.57-.3.74.74,0,0,0,.23-.59.65.65,0,0,0-.16-.45,1.33,1.33,0,0,0-.42-.3,4.12,4.12,0,0,0-.59-.18,5.08,5.08,0,0,0-.64-.08l-.59,0H31.8A5.86,5.86,0,0,1,29.66,22,4.85,4.85,0,0,1,28,21a4.69,4.69,0,0,1-1.08-1.64,5.83,5.83,0,0,1-.38-2.14,6.33,6.33,0,0,1,.65-2.89,6.58,6.58,0,0,1,1.74-2.17,7.75,7.75,0,0,1,2.49-1.38,9,9,0,0,1,2.91-.47c.45,0,.91,0,1.38,0s1,.09,1.42.17.93.19,1.37.32a8.34,8.34,0,0,1,1.27.48l-.52,5.55a16.19,16.19,0,0,0-1.94-.53,9.91,9.91,0,0,0-2-.21h-.46a4.08,4.08,0,0,0-.59,0,4.69,4.69,0,0,0-.62.1,3.36,3.36,0,0,0-.56.18,1.05,1.05,0,0,0-.4.31.65.65,0,0,0-.13.45.57.57,0,0,0,.22.47,1.33,1.33,0,0,0,.55.24,3.38,3.38,0,0,0,.74.07c.26,0,.53,0,.8,0l.73,0h.56a5.54,5.54,0,0,1,2,.47,4.46,4.46,0,0,1,1.49,1.05A4.64,4.64,0,0,1,40.56,21,6,6,0,0,1,40.88,23Z" transform="translate(-1.06 -6.18)"/><path class="cls-1" d="M48.89,10.75l-1,18.62-5.77.3-.54-18.54Z" transform="translate(-1.06 -6.18)"/><path class="cls-1" d="M67,28.82l-6.78.88-.82-3.09H56.31l-.68,3.09-7-.68L54.1,10.8l7.6-.38Zm-8.09-6.39-1-4.76-1,4.76Z" transform="translate(-1.06 -6.18)"/><path class="cls-1" d="M12.9,36.27l-.1,4.55L9.59,41,8.78,51.13l-4.54.24,0-10.18-3.21.17.13-5.07Z" transform="translate(-1.06 -6.18)"/><path class="cls-1" d="M26.08,41.27a7.09,7.09,0,0,1-.14,1.52A4.43,4.43,0,0,1,25.48,44a4.48,4.48,0,0,1-.8,1.06,7,7,0,0,1-1.2.92L26,50.58l-4.83.94L19.55,47l-1.33,0L18,51.46H13.41c0-1.64.07-3.26.1-4.88s.07-3.24.11-4.88c0-.82,0-1.64.05-2.45s0-1.62.08-2.45c.5-.18,1-.34,1.48-.46s1-.21,1.47-.28a14.73,14.73,0,0,1,1.49-.14c.51,0,1,0,1.56,0a8.12,8.12,0,0,1,2.36.34,6,6,0,0,1,2,1,5.12,5.12,0,0,1,1.41,1.69A4.91,4.91,0,0,1,26.08,41.27Zm-4.81.35a2.73,2.73,0,0,0-.12-.83,2,2,0,0,0-.37-.65,1.65,1.65,0,0,0-.6-.43,2.17,2.17,0,0,0-.84-.16,2.77,2.77,0,0,0-.42,0l-.4.08-.17,4h.26a3.91,3.91,0,0,0,.94-.12,2.77,2.77,0,0,0,.86-.37,2,2,0,0,0,.62-.63A1.7,1.7,0,0,0,21.27,41.62Z" transform="translate(-1.06 -6.18)"/><path class="cls-1" d="M40.37,50.71,35,51.39,34.4,49H32l-.54,2.43-5.48-.53,4.28-14.31,6-.3Zm-6.36-5-.82-3.74-.79,3.74Z" transform="translate(-1.06 -6.18)"/><path class="cls-1" d="M52.59,36.57,48.66,51.09l-5.33.3-4.83-14,5.09-.47,2.06,8.16,2-8.8Z" transform="translate(-1.06 -6.18)"/><path class="cls-1" d="M64.37,43a13.06,13.06,0,0,1-.13,1.87c-1.23.08-2.44.2-3.65.38L57,45.72A2.6,2.6,0,0,0,57.83,47a2.3,2.3,0,0,0,1.42.46,3.49,3.49,0,0,0,1-.16,7.13,7.13,0,0,0,1-.41,10,10,0,0,0,1-.52c.3-.18.57-.35.79-.5l-.51,4.88a5.2,5.2,0,0,1-.91.54,6.22,6.22,0,0,1-1,.37,8.89,8.89,0,0,1-2.11.27,6.33,6.33,0,0,1-2-.29,6.11,6.11,0,0,1-1.59-.81,5.83,5.83,0,0,1-1.25-1.23,7.47,7.47,0,0,1-.9-1.55,9.3,9.3,0,0,1-.53-1.77A10.1,10.1,0,0,1,52,44.35a11.2,11.2,0,0,1,.19-2,9.7,9.7,0,0,1,.55-1.93,8.35,8.35,0,0,1,.94-1.71A6.86,6.86,0,0,1,55,37.33a5.93,5.93,0,0,1,1.7-.92,6.42,6.42,0,0,1,2.1-.34,5.4,5.4,0,0,1,1.75.27,4.84,4.84,0,0,1,1.41.73A4.91,4.91,0,0,1,63,38.18a6.34,6.34,0,0,1,.75,1.41,7.9,7.9,0,0,1,.44,1.62A10.05,10.05,0,0,1,64.37,43Zm-4.3-.56a3.34,3.34,0,0,0-.06-.62,2.4,2.4,0,0,0-.21-.57,1.57,1.57,0,0,0-.38-.43,1,1,0,0,0-.59-.16,1.24,1.24,0,0,0-.76.23,2.25,2.25,0,0,0-.57.58,3.6,3.6,0,0,0-.38.76,5.68,5.68,0,0,0-.23.75l3.18-.3Z" transform="translate(-1.06 -6.18)"/><path class="cls-1" d="M74.49,45.94,74,50.71l-9.05.7.34-15.34h5.59l-.8,9.87Z" transform="translate(-1.06 -6.18)"/><path class="cls-2" d="M84.12,49.56h.6v.17a1.17,1.17,0,0,1,.57,1,1.16,1.16,0,0,1-.57,1v.17h-.6a1.17,1.17,0,0,1,0-2.34Z" transform="translate(-1.06 -6.18)"/><path class="cls-3" d="M83.55,50.73a1.17,1.17,0,1,0,1.17-1.17A1.17,1.17,0,0,0,83.55,50.73Z" transform="translate(-1.06 -6.18)"/><path class="cls-4" d="M84.13,50.73a.59.59,0,0,0,.59.59.59.59,0,1,0,0-1.18A.59.59,0,0,0,84.13,50.73Z" transform="translate(-1.06 -6.18)"/><path class="cls-5" d="M84.66,50.14a.49.49,0,0,0-.14.24.55.55,0,0,0,0,.4.6.6,0,0,0,.38.33.49.49,0,0,0,.21,0,.59.59,0,0,1-1-.4A.6.6,0,0,1,84.66,50.14Z" transform="translate(-1.06 -6.18)"/><path class="cls-2" d="M80.27,49.56h.6v.17a1.17,1.17,0,0,1,.57,1,1.16,1.16,0,0,1-.57,1v.17h-.6a1.17,1.17,0,0,1,0-2.34Z" transform="translate(-1.06 -6.18)"/><path class="cls-2" d="M79.7,50.73a1.17,1.17,0,1,0,1.17-1.17A1.17,1.17,0,0,0,79.7,50.73Z" transform="translate(-1.06 -6.18)"/><path class="cls-2" d="M80.28,50.73a.59.59,0,1,0,.59-.59A.58.58,0,0,0,80.28,50.73Z" transform="translate(-1.06 -6.18)"/><path class="cls-2" d="M80.81,50.14a.49.49,0,0,0-.14.24.55.55,0,0,0,0,.4.64.64,0,0,0,.39.33.44.44,0,0,0,.2,0,.56.56,0,0,1-.43.19.58.58,0,0,1-.59-.59A.6.6,0,0,1,80.81,50.14Z" transform="translate(-1.06 -6.18)"/><path class="cls-2" d="M93.17,49.56h.6v.17a1.17,1.17,0,0,1,.57,1,1.16,1.16,0,0,1-.57,1v.17h-.6a1.17,1.17,0,0,1,0-2.34Z" transform="translate(-1.06 -6.18)"/><path class="cls-3" d="M92.6,50.73a1.17,1.17,0,1,0,1.17-1.17A1.17,1.17,0,0,0,92.6,50.73Z" transform="translate(-1.06 -6.18)"/><path class="cls-4" d="M93.18,50.73a.59.59,0,1,0,.59-.59A.58.58,0,0,0,93.18,50.73Z" transform="translate(-1.06 -6.18)"/><path class="cls-5" d="M93.71,50.14a.49.49,0,0,0-.14.24.55.55,0,0,0,0,.4.64.64,0,0,0,.39.33.44.44,0,0,0,.2,0,.56.56,0,0,1-.43.19.58.58,0,0,1-.59-.59A.6.6,0,0,1,93.71,50.14Z" transform="translate(-1.06 -6.18)"/><path class="cls-2" d="M89.32,49.56h.6v.17a1.17,1.17,0,0,1,.57,1,1.16,1.16,0,0,1-.57,1v.17h-.6a1.17,1.17,0,1,1,0-2.34Z" transform="translate(-1.06 -6.18)"/><path class="cls-2" d="M88.75,50.73a1.17,1.17,0,1,0,2.34,0,1.17,1.17,0,0,0-2.34,0Z" transform="translate(-1.06 -6.18)"/><path class="cls-2" d="M89.33,50.73a.58.58,0,0,0,.59.59.59.59,0,1,0,0-1.18A.58.58,0,0,0,89.33,50.73Z" transform="translate(-1.06 -6.18)"/><path class="cls-2" d="M89.85,50.14a.72.72,0,0,0-.14.24.61.61,0,0,0,.05.4.65.65,0,0,0,.38.33.5.5,0,0,0,.21,0,.57.57,0,0,1-.43.19.58.58,0,0,1-.59-.59A.6.6,0,0,1,89.85,50.14Z" transform="translate(-1.06 -6.18)"/><path class="cls-6" d="M92.78,26.54h-11V50.4H94.27A3.77,3.77,0,0,0,98,46.64V30.3a3.76,3.76,0,0,0-3.76-3.76Z" transform="translate(-1.06 -6.18)"/><rect class="cls-7" x="75.47" y="20.35" width="10.49" height="23.86" rx="5.24"/><path class="cls-8" d="M97.51,33.68H88.94a1.17,1.17,0,0,1,1.17,1.18V46.54a1.17,1.17,0,0,1-1.17,1.17h8.57a1.17,1.17,0,0,0,1.18-1.17V34.86A1.18,1.18,0,0,0,97.51,33.68Z" transform="translate(-1.06 -6.18)"/><path class="cls-7" d="M90.11,46.54V34.86a1.17,1.17,0,0,0-1.17-1.18v14A1.17,1.17,0,0,0,90.11,46.54Z" transform="translate(-1.06 -6.18)"/><rect class="cls-9" x="79.92" y="20.35" width="0.56" height="23.86"/><rect class="cls-10" x="89.05" y="29.16" width="8.57" height="0.44"/><rect class="cls-10" x="87.87" y="24.78" width="9.09" height="0.44"/><path class="cls-11" d="M81.26,12.85h1a.76.76,0,0,1,.76-.76h5.64a.76.76,0,0,1,.76.76h1a1.77,1.77,0,0,0-1.77-1.77H83A1.77,1.77,0,0,0,81.26,12.85Z" transform="translate(-1.06 -6.18)"/><rect class="cls-12" x="88.55" y="6.67" width="0.63" height="13.69"/><rect class="cls-12" x="80.39" y="6.67" width="0.63" height="13.69"/><path class="cls-3" d="M81.64,12.85h1a.76.76,0,0,1,.76-.76h5.64a.76.76,0,0,1,.76.76h1a1.77,1.77,0,0,0-1.77-1.77H83.41A1.77,1.77,0,0,0,81.64,12.85Z" transform="translate(-1.06 -6.18)"/><rect class="cls-5" x="88.93" y="6.67" width="0.63" height="13.69"/><rect class="cls-5" x="80.77" y="6.67" width="0.63" height="13.69"/><path class="cls-13" d="M81.09,9.15l0-.05A4.5,4.5,0,0,0,75,8.73l-.21.19,0,0a4.49,4.49,0,0,0-.43,6.15l.07,0C76.17,14.3,80.52,10.7,81.09,9.15Z" transform="translate(-1.06 -6.18)"/><path class="cls-14" d="M82,10.21l-.55-.72-.33-.39,0,.05c-.57,1.55-4.92,5.15-6.69,5.93l-.07,0c.1.12.2.24.32.36s.51.53.75.79C77.53,15.89,82,12.37,82,10.21Z" transform="translate(-1.06 -6.18)"/><path class="cls-13" d="M82,10.21c0,2.16-4.47,5.68-6.6,6a17.15,17.15,0,0,1-5.65,5.62,17.78,17.78,0,0,0,12.56-4A17.79,17.79,0,0,0,88.5,6.18,13.94,13.94,0,0,1,82,10.21Z" transform="translate(-1.06 -6.18)"/><path class="cls-15" d="M77.3,8.25a10.22,10.22,0,0,1,2,1.66c.22.21.45.46.7.72a5.18,5.18,0,0,0,1-1.48l0-.05a4.52,4.52,0,0,0-4.63-1.18A4.75,4.75,0,0,1,77.3,8.25Z" transform="translate(-1.06 -6.18)"/><path class="cls-16" d="M80.05,10.63c.43.46.88.95,1.25,1.31a3.3,3.3,0,0,0,.7-1.73l-.55-.72-.33-.39,0,.05A5.18,5.18,0,0,1,80.05,10.63Z" transform="translate(-1.06 -6.18)"/><path class="cls-15" d="M82,10.21a3.3,3.3,0,0,1-.7,1.73h0c.34,0,.68,0,1,0a1.29,1.29,0,0,1,1.25,1.89,16,16,0,0,1-3.8,4.83,18,18,0,0,1-4.42,2.73,17.83,17.83,0,0,0,7-3.54A17.79,17.79,0,0,0,88.5,6.18,13.94,13.94,0,0,1,82,10.21Z" transform="translate(-1.06 -6.18)"/></svg>