<svg id="圖層_1" data-name="圖層 1" xmlns="http://www.w3.org/2000/svg" viewBox="0 0 173.25 27.32"><defs><style>.cls-1{fill:#fff;}.cls-2{fill:#ffcd73;}.cls-3{fill:#b66947;}.cls-4{fill:#f9a957;}.cls-5{fill:#873f3a;}.cls-6{fill:#2c2945;}.cls-7{fill:#47416e;}.cls-8{fill:#8d8ec6;}.cls-9{fill:#69699c;}.cls-10{fill:#b2113f;}.cls-11{fill:#e81f40;}.cls-12{fill:#a60c3f;}.cls-13{fill:#6d4247;}.cls-14{fill:#bd6548;}.cls-15{fill:#2c2849;}.cls-16{fill:#444476;}</style></defs><path class="cls-1" d="M21.87,22.65l-6.78.88-.82-3.09H11.15l-.68,3.09-7-.69L8.94,4.63l7.6-.38Zm-8.09-6.4-1-4.75-1,4.75Z"/><path class="cls-1" d="M29.54,4.58,28,23.2l-5.77.3V5Z"/><path class="cls-1" d="M44.49,16.56a7.76,7.76,0,0,1-.65,3.27,6.68,6.68,0,0,1-1.78,2.33,7.59,7.59,0,0,1-2.64,1.4,11,11,0,0,1-3.25.46,6.83,6.83,0,0,1-1.47-.18c-.53-.12-1.07-.26-1.62-.44S32,23,31.5,22.82s-.95-.39-1.34-.58l.6-5.63a9.27,9.27,0,0,0,2.58,1.06,11.23,11.23,0,0,0,2.78.36c.17,0,.38,0,.63,0a2.7,2.7,0,0,0,.7-.12,1.57,1.57,0,0,0,.57-.31.76.76,0,0,0,.23-.59.63.63,0,0,0-.16-.44,1.27,1.27,0,0,0-.43-.3,2.41,2.41,0,0,0-.59-.18c-.21,0-.43-.07-.64-.09l-.59,0h-.43a5.27,5.27,0,0,1-2.14-.41,4.73,4.73,0,0,1-1.66-1.14,5.1,5.1,0,0,1-1.07-1.73,6,6,0,0,1-.38-2.18,6.25,6.25,0,0,1,.65-2.9,6.78,6.78,0,0,1,1.73-2.17A7.88,7.88,0,0,1,35,4.05,9,9,0,0,1,38,3.57c.45,0,.91,0,1.38.05a11.45,11.45,0,0,1,1.42.17,12.38,12.38,0,0,1,1.37.31,8.34,8.34,0,0,1,1.27.48l-.52,5.55a16.35,16.35,0,0,0-1.95-.53,9.83,9.83,0,0,0-2-.21h-.45c-.19,0-.39,0-.59,0s-.41.06-.62.1a2.62,2.62,0,0,0-.56.19,1,1,0,0,0-.4.3.67.67,0,0,0-.14.46.65.65,0,0,0,.23.48,1.54,1.54,0,0,0,.54.29,4,4,0,0,0,.74.14,7.31,7.31,0,0,0,.8,0h.74a4.45,4.45,0,0,1,.56,0,5.75,5.75,0,0,1,2,.46A4.59,4.59,0,0,1,43.23,13a4.29,4.29,0,0,1,.93,1.56A5.89,5.89,0,0,1,44.49,16.56Z"/><path class="cls-1" d="M62.38,22.65l-6.78.88-.82-3.09H51.66L51,23.53l-7-.69L49.45,4.63l7.6-.38Zm-8.09-6.4-1-4.75-1,4.75Z"/><path class="cls-1" d="M82.59,4.28l-.14,5.8-4.07.16-1,13-5.77.3,0-13-4.08.22.17-6.45Z"/><path class="cls-1" d="M99.36,10.65a9.46,9.46,0,0,1-.18,1.93,5.54,5.54,0,0,1-1.61,2.94,9,9,0,0,1-1.51,1.17l3.25,5.8-6.15,1.2-2.11-5.82-1.69.05-.25,5.69H83.23q.08-3.12.13-6.21t.14-6.2q0-1.57.06-3.12c0-1,0-2.07.11-3.12.64-.23,1.27-.43,1.89-.59S86.8,4.1,87.42,4s1.26-.14,1.9-.18,1.3,0,2,0a10.43,10.43,0,0,1,3,.43,7.63,7.63,0,0,1,2.58,1.29,6.37,6.37,0,0,1,1.8,2.15A6.31,6.31,0,0,1,99.36,10.65Zm-6.12.44A3.23,3.23,0,0,0,93.08,10a2.36,2.36,0,0,0-.46-.82,2,2,0,0,0-.77-.55,2.69,2.69,0,0,0-1.07-.2,3.27,3.27,0,0,0-.54,0,2.77,2.77,0,0,0-.5.1l-.22,5.08h.33A4.91,4.91,0,0,0,91,13.53a3.5,3.5,0,0,0,1.1-.46,2.55,2.55,0,0,0,.79-.81A2.13,2.13,0,0,0,93.24,11.09Z"/><path class="cls-1" d="M117.55,22.65l-6.78.88L110,20.44h-3.12l-.68,3.09-7-.69,5.44-18.21,7.61-.38Zm-8.1-6.4-1-4.75-1,4.75Z"/><path class="cls-1" d="M133.05,4.66l-5,19-6.78.39L115.11,4.85l6.48-.6,2.63,11.21,2.54-11.21Z"/><path class="cls-1" d="M146.44,4.11q-.09,1.29-.15,2.55c0,.84-.11,1.68-.18,2.54l-5.8.3-.14,1.72h4.08l-.3,4.24-4.1.14-.14,2h5.8c-.06,1-.11,2-.17,3s-.12,2-.16,3l-11.79.27.44-19.72Z"/><path class="cls-1" d="M158.92,16l-.58,6.07-11.51.9c.06-3.18.12-6.35.19-9.49s.15-6.31.25-9.49h7.11q-.31,3-.6,6c-.19,2-.33,4-.41,6l1.27,0h4.28Z"/><path class="cls-2" d="M8.76,2.88v0a3.09,3.09,0,0,0-4.21-.26l-.15.13,0,0A3.11,3.11,0,0,0,4.09,7l0,0C5.36,6.43,8.36,4,8.76,2.88Z"/><path class="cls-3" d="M9.39,3.61,9,3.11a2.85,2.85,0,0,0-.23-.26v0C8.36,4,5.36,6.43,4.14,7l0,0,.22.24c.18.18.36.37.52.55C6.3,7.53,9.35,5.1,9.39,3.61Z"/><path class="cls-2" d="M9.39,3.61c0,1.49-3.09,3.92-4.56,4.17a12,12,0,0,1-3.9,3.88A12.3,12.3,0,0,0,9.6,8.87a12.27,12.27,0,0,0,4.27-8A9.64,9.64,0,0,1,9.39,3.61Z"/><path class="cls-4" d="M6.14,2.26A6.76,6.76,0,0,1,7.56,3.41c.15.14.31.31.48.49a3.58,3.58,0,0,0,.72-1v0A3.08,3.08,0,0,0,5.58,2,3.88,3.88,0,0,1,6.14,2.26Z"/><path class="cls-5" d="M8,3.9c.29.31.6.66.86.91a2.43,2.43,0,0,0,.49-1.2L9,3.11a2.85,2.85,0,0,0-.23-.26v0A3.58,3.58,0,0,1,8,3.9Z"/><path class="cls-4" d="M9.39,3.61a2.43,2.43,0,0,1-.49,1.2h0c.23,0,.47,0,.7,0a.9.9,0,0,1,.87,1.3A11.06,11.06,0,0,1,7.84,9.43a12.35,12.35,0,0,1-3,1.88A12.29,12.29,0,0,0,9.6,8.87a12.27,12.27,0,0,0,4.27-8A9.64,9.64,0,0,1,9.39,3.61Z"/><path class="cls-6" d="M162.21,24.64h.37v.1a.7.7,0,0,1,.35.61.73.73,0,0,1-.35.62v.1h-.37a.72.72,0,0,1,0-1.43Z"/><path class="cls-7" d="M161.86,25.35a.72.72,0,1,0,.72-.71A.72.72,0,0,0,161.86,25.35Z"/><path class="cls-8" d="M162.22,25.35a.36.36,0,1,0,.36-.36A.36.36,0,0,0,162.22,25.35Z"/><path class="cls-9" d="M162.54,25a.38.38,0,0,0-.09.15.38.38,0,0,0,.27.44l.12,0a.35.35,0,0,1-.26.11.36.36,0,0,1,0-.72Z"/><path class="cls-6" d="M159.85,24.64h.37v.1a.7.7,0,0,1,.35.61.73.73,0,0,1-.35.62v.1h-.37a.72.72,0,0,1,0-1.43Z"/><path class="cls-6" d="M159.5,25.35a.72.72,0,1,0,.72-.71A.72.72,0,0,0,159.5,25.35Z"/><path class="cls-6" d="M159.85,25.35a.37.37,0,0,0,.37.36.36.36,0,1,0,0-.72A.37.37,0,0,0,159.85,25.35Z"/><path class="cls-6" d="M160.18,25a.38.38,0,0,0-.09.15.33.33,0,0,0,0,.24.4.4,0,0,0,.24.2l.12,0a.35.35,0,0,1-.26.11.36.36,0,0,1,0-.72Z"/><path class="cls-6" d="M167.76,24.64h.36v.1a.7.7,0,0,1,.35.61.73.73,0,0,1-.35.62v.1h-.36a.72.72,0,1,1,0-1.43Z"/><path class="cls-7" d="M167.41,25.35a.72.72,0,1,0,.71-.71A.71.71,0,0,0,167.41,25.35Z"/><path class="cls-8" d="M167.76,25.35a.37.37,0,1,0,.36-.36A.36.36,0,0,0,167.76,25.35Z"/><path class="cls-9" d="M168.09,25a.24.24,0,0,0-.09.15.33.33,0,0,0,0,.24.38.38,0,0,0,.23.2l.13,0a.37.37,0,0,1-.27.11.36.36,0,0,1,0-.72Z"/><path class="cls-6" d="M165.4,24.64h.36v.1a.7.7,0,0,1,.35.61.73.73,0,0,1-.35.62v.1h-.36a.72.72,0,1,1,0-1.43Z"/><path class="cls-6" d="M165.05,25.35a.72.72,0,1,0,.71-.71A.71.71,0,0,0,165.05,25.35Z"/><path class="cls-6" d="M165.4,25.35a.36.36,0,0,0,.36.36.36.36,0,1,0,0-.72A.36.36,0,0,0,165.4,25.35Z"/><path class="cls-6" d="M165.72,25a.28.28,0,0,0-.08.15.33.33,0,0,0,0,.24.35.35,0,0,0,.23.2l.13,0a.37.37,0,0,1-.27.11.36.36,0,0,1,0-.72Z"/><path class="cls-10" d="M167.52,10.52h-6.75V25.15h7.66a2.3,2.3,0,0,0,2.3-2.31v-10a2.3,2.3,0,0,0-2.3-2.31Z"/><rect class="cls-11" x="157.56" y="10.52" width="6.43" height="14.63" rx="3.21"/><path class="cls-12" d="M170.42,14.9h-5.26a.72.72,0,0,1,.72.72v7.16a.72.72,0,0,1-.72.72h5.26a.72.72,0,0,0,.72-.72V15.62A.72.72,0,0,0,170.42,14.9Z"/><path class="cls-11" d="M165.88,22.78V15.62a.72.72,0,0,0-.72-.72v8.6A.72.72,0,0,0,165.88,22.78Z"/><rect class="cls-13" x="160.29" y="10.52" width="0.35" height="14.63"/><rect class="cls-14" x="165.88" y="15.92" width="5.26" height="0.27"/><rect class="cls-14" x="165.16" y="13.24" width="5.57" height="0.27"/><path class="cls-15" d="M160.46,2.13h.62a.47.47,0,0,1,.46-.46H165a.47.47,0,0,1,.46.46h.62A1.08,1.08,0,0,0,165,1.05h-3.46A1.08,1.08,0,0,0,160.46,2.13Z"/><rect class="cls-16" x="165.58" y="2.13" width="0.39" height="8.39"/><rect class="cls-16" x="160.57" y="2.13" width="0.39" height="8.39"/><path class="cls-7" d="M160.69,2.13h.62a.47.47,0,0,1,.46-.46h3.46a.47.47,0,0,1,.47.46h.62a1.08,1.08,0,0,0-1.09-1.08h-3.46A1.08,1.08,0,0,0,160.69,2.13Z"/><rect class="cls-9" x="165.81" y="2.13" width="0.39" height="8.39"/><rect class="cls-9" x="160.81" y="2.13" width="0.39" height="8.39"/></svg>